<svg width="548.3600219726562px" height="121.383740234375px" xmlns="http://www.w3.org/2000/svg" viewBox="-24.180010986328114 14.308129882812501 548.3600219726562 121.383740234375" style="background-color: rgba(0, 0, 0, 0);" preserveAspectRatio="xMidYMid"><defs><linearGradient id="editing-sticker-gradient" x1="0.5" y1="0.2" x2="0.5" y2="0.8"><stop offset="0" stop-color="#99ddff"></stop><stop offset="1" stop-color="#ffdd99"></stop></linearGradient><filter id="editing-sticker" x="-100%" y="-100%" width="300%" height="300%"><feMorphology operator="erode" radius="1" in="SourceAlpha" result="alpha-erode"></feMorphology><feConvolveMatrix order="3,3" divisor="1" kernelMatrix="0 1 0 1 1 1 0 1 0" in="alpha-erode" result="alpha-round"></feConvolveMatrix><feMorphology operator="dilate" radius="3.5" in="alpha-round" result="dilate-shadow"></feMorphology><feGaussianBlur in="dilate-shadow" stdDeviation="1.5" result="shadow"></feGaussianBlur><feFlood flood-color="#fff" result="flood-sticker"></feFlood><feComposite operator="in" in="flood-sticker" in2="alpha-round" result="comp-sticker"></feComposite><feMorphology operator="dilate" radius="3" in="comp-sticker" result="morph-sticker"></feMorphology><feConvolveMatrix order="3,3" divisor="1" kernelMatrix="0 1 0 1 1 1 0 1 0" in="morph-sticker" result="sticker"></feConvolveMatrix><feMerge><feMergeNode in="shadow"></feMergeNode><feMergeNode in="sticker"></feMergeNode><feMergeNode in="SourceGraphic"></feMergeNode></feMerge></filter></defs><g filter="url(#editing-sticker)"><g transform="translate(57.45501160621643, 97.40781211853027)"><path d="M42.62-26.56L42.62-26.56L42.62-26.56Q42.62 0.70 13.06 0.70L13.06 0.70L13.06 0.70Q8.32 0.70 0.51-0.45L0.51-0.45L7.68-38.27L7.68-38.27Q8.19-40.83 8.51-42.30L8.51-42.30L8.51-42.30Q18.24-43.01 22.56-43.01L22.56-43.01L22.56-43.01Q26.88-43.01 30.85-42.11L30.85-42.11L30.85-42.11Q34.82-41.22 37.44-39.23L37.44-39.23L37.44-39.23Q42.62-35.33 42.62-26.56ZM29.44-28.93L29.44-28.93L29.44-28.93Q29.44-38.46 22.59-38.46L22.59-38.46L21.95-38.46L21.95-38.46Q21.63-38.46 21.31-38.40L21.31-38.40L14.72-4.03L14.72-4.03Q14.98-3.90 15.23-3.90L15.23-3.90L15.74-3.90L15.74-3.90Q18.11-3.90 20.58-5.38L20.58-5.38L20.58-5.38Q23.04-6.85 24.96-9.86L24.96-9.86L24.96-9.86Q29.44-16.83 29.44-28.93ZM48.67-1.92L48.67-1.92L48.67-1.92Q47.17-3.58 46.50-6.21L46.50-6.21L46.50-6.21Q45.82-8.83 45.82-13.12L45.82-13.12L45.82-13.12Q45.82-17.41 47.30-21.31L47.30-21.31L47.30-21.31Q48.77-25.22 51.46-28.03L51.46-28.03L51.46-28.03Q56.96-33.92 66.05-33.92L66.05-33.92L66.05-33.92Q69.31-33.92 71.68-32.83L71.68-32.83L82.62-33.92L77.89-8.96L77.89-8.96Q77.70-8.19 77.70-6.78L77.70-6.78L77.70-6.78Q77.70-5.38 78.56-4.48L78.56-4.48L78.56-4.48Q79.42-3.58 80.70-3.46L80.70-3.46L80.70-3.46Q80.06-1.28 77.73 0L77.73 0L77.73 0Q75.39 1.28 72.77 1.28L72.77 1.28L72.77 1.28Q70.14 1.28 68.38 0.29L68.38 0.29L68.38 0.29Q66.62-0.70 66.11-2.37L66.11-2.37L66.11-2.37Q65.09-0.77 62.91 0.26L62.91 0.26L62.91 0.26Q60.74 1.28 57.82 1.28L57.82 1.28L57.82 1.28Q54.91 1.28 52.54 0.51L52.54 0.51L52.54 0.51Q50.18-0.26 48.67-1.92ZM62.18-27.90L62.18-27.90L62.18-27.90Q61.44-26.75 60.80-24.80L60.80-24.80L60.80-24.80Q60.16-22.85 59.10-17.63L59.10-17.63L59.10-17.63Q58.05-12.42 58.05-8.70L58.05-8.70L58.05-8.70Q58.05-4.99 58.62-3.90L58.62-3.90L58.62-3.90Q59.20-2.82 60.22-2.82L60.22-2.82L60.22-2.82Q62.27-2.82 63.78-4.77L63.78-4.77L63.78-4.77Q65.28-6.72 65.86-10.18L65.86-10.18L69.25-28.93L69.25-28.93Q67.90-30.08 66.34-30.08L66.34-30.08L66.34-30.08Q64.77-30.08 63.84-29.57L63.84-29.57L63.84-29.57Q62.91-29.06 62.18-27.90ZM87.10-6.40L87.10-6.40L87.10-6.40Q87.10-8.13 88-12.48L88-12.48L91.39-29.76L87.62-29.76L87.87-31.68L87.87-31.68Q95.55-33.98 102.98-39.62L102.98-39.62L106.05-39.62L104.51-32.64L109.50-32.64L108.93-29.76L104-29.76L100.74-12.48L100.74-12.48Q99.90-8.51 99.90-7.17L99.90-7.17L99.90-7.17Q99.90-4.10 102.59-3.46L102.59-3.46L102.59-3.46Q101.95-1.28 99.65 0L99.65 0L99.65 0Q97.34 1.28 94.08 1.28L94.08 1.28L94.08 1.28Q90.82 1.28 88.96-0.77L88.96-0.77L88.96-0.77Q87.10-2.82 87.10-6.40ZM111.71-1.92L111.71-1.92L111.71-1.92Q110.21-3.58 109.54-6.21L109.54-6.21L109.54-6.21Q108.86-8.83 108.86-13.12L108.86-13.12L108.86-13.12Q108.86-17.41 110.34-21.31L110.34-21.31L110.34-21.31Q111.81-25.22 114.50-28.03L114.50-28.03L114.50-28.03Q120-33.92 129.09-33.92L129.09-33.92L129.09-33.92Q132.35-33.92 134.72-32.83L134.72-32.83L145.66-33.92L140.93-8.96L140.93-8.96Q140.74-8.19 140.74-6.78L140.74-6.78L140.74-6.78Q140.74-5.38 141.60-4.48L141.60-4.48L141.60-4.48Q142.46-3.58 143.74-3.46L143.74-3.46L143.74-3.46Q143.10-1.28 140.77 0L140.77 0L140.77 0Q138.43 1.28 135.81 1.28L135.81 1.28L135.81 1.28Q133.18 1.28 131.42 0.29L131.42 0.29L131.42 0.29Q129.66-0.70 129.15-2.37L129.15-2.37L129.15-2.37Q128.13-0.77 125.95 0.26L125.95 0.26L125.95 0.26Q123.78 1.28 120.86 1.28L120.86 1.28L120.86 1.28Q117.95 1.28 115.58 0.51L115.58 0.51L115.58 0.51Q113.22-0.26 111.71-1.92ZM125.22-27.90L125.22-27.90L125.22-27.90Q124.48-26.75 123.84-24.80L123.84-24.80L123.84-24.80Q123.20-22.85 122.14-17.63L122.14-17.63L122.14-17.63Q121.09-12.42 121.09-8.70L121.09-8.70L121.09-8.70Q121.09-4.99 121.66-3.90L121.66-3.90L121.66-3.90Q122.24-2.82 123.26-2.82L123.26-2.82L123.26-2.82Q125.31-2.82 126.82-4.77L126.82-4.77L126.82-4.77Q128.32-6.72 128.90-10.18L128.90-10.18L132.29-28.93L132.29-28.93Q130.94-30.08 129.38-30.08L129.38-30.08L129.38-30.08Q127.81-30.08 126.88-29.57L126.88-29.57L126.88-29.57Q125.95-29.06 125.22-27.90ZM187.26-29.57L187.26-29.57L187.26-29.57Q188.22-31.49 188.22-33.28L188.22-33.28L188.22-33.28Q188.22-35.07 188.03-36.06L188.03-36.06L188.03-36.06Q187.84-37.06 187.39-37.82L187.39-37.82L187.39-37.82Q186.43-39.49 184.51-39.49L184.51-39.49L184.51-39.49Q182.14-39.49 180.22-37.76L180.22-37.76L180.22-37.76Q178.18-35.97 178.18-33.15L178.18-33.15L178.18-33.15Q178.18-31.36 179.42-29.98L179.42-29.98L179.42-29.98Q180.67-28.61 182.59-27.33L182.59-27.33L182.59-27.33Q184.51-26.05 186.69-24.77L186.69-24.77L186.69-24.77Q188.86-23.49 190.78-21.95L190.78-21.95L190.78-21.95Q195.20-18.43 195.20-13.70L195.20-13.70L195.20-13.70Q195.20-10.50 193.50-7.78L193.50-7.78L193.50-7.78Q191.81-5.06 188.99-3.07L188.99-3.07L188.99-3.07Q182.85 1.28 174.72 1.28L174.72 1.28L174.72 1.28Q168.13 1.28 164.74-0.86L164.74-0.86L164.74-0.86Q161.34-3.01 161.34-6.27L161.34-6.27L161.34-6.27Q161.34-12.10 165.89-13.57L165.89-13.57L165.89-13.57Q167.17-14.02 169.12-14.02L169.12-14.02L169.12-14.02Q171.07-14.02 173.31-13.18L173.31-13.18L173.31-13.18Q172.29-10.56 172.29-8.19L172.29-8.19L172.29-8.19Q172.29-3.07 175.94-3.07L175.94-3.07L175.94-3.07Q178.30-3.07 180.26-4.80L180.26-4.80L180.26-4.80Q182.21-6.53 182.21-8.48L182.21-8.48L182.21-8.48Q182.21-10.43 180.96-11.84L180.96-11.84L180.96-11.84Q179.71-13.25 177.86-14.37L177.86-14.37L177.86-14.37Q176-15.49 173.86-16.58L173.86-16.58L173.86-16.58Q171.71-17.66 169.86-19.20L169.86-19.20L169.86-19.20Q165.50-22.72 165.50-28.35L165.50-28.35L165.50-28.35Q165.50-32 167.30-34.85L167.30-34.85L167.30-34.85Q169.09-37.70 171.97-39.62L171.97-39.62L171.97-39.62Q177.73-43.52 184.80-43.52L184.80-43.52L184.80-43.52Q191.87-43.52 195.30-41.41L195.30-41.41L195.30-41.41Q198.72-39.30 198.72-35.71L198.72-35.71L198.72-35.71Q198.72-32.58 196.29-30.59L196.29-30.59L196.29-30.59Q194.18-28.93 191.62-28.93L191.62-28.93L191.62-28.93Q189.06-28.93 187.26-29.57ZM247.81-10.69L247.81-10.69Q243.58-4.86 239.52-1.79L239.52-1.79L239.52-1.79Q235.46 1.28 231.26 1.28L231.26 1.28L231.26 1.28Q227.07 1.28 225.60 0.45L225.60 0.45L225.60-13.63L225.60-13.63Q221.95-3.90 215.42-0.13L215.42-0.13L215.42-0.13Q213.06 1.28 210.82 1.28L210.82 1.28L210.82 1.28Q206.53 1.28 204.67 0.45L204.67 0.45L204.67 0.45Q204.22-14.21 203.84-18.27L203.84-18.27L203.84-18.27Q203.46-22.34 203.14-24.83L203.14-24.83L203.14-24.83Q202.50-29.82 200.32-31.87L200.32-31.87L200.32-31.87Q203.07-33.92 206.91-33.92L206.91-33.92L206.91-33.92Q214.34-33.92 215.36-24.70L215.36-24.70L215.36-24.70Q215.62-22.53 215.62-20.22L215.62-20.22L215.62-20.22Q215.62-16.77 214.85-4.74L214.85-4.74L214.85-4.74Q216.38-5.44 218.02-7.97L218.02-7.97L218.02-7.97Q219.65-10.50 220.99-13.95L220.99-13.95L220.99-13.95Q224-21.95 224-28.86L224-28.86L224-28.86Q224-29.95 223.71-31.10L223.71-31.10L223.71-31.10Q223.42-32.26 223.10-32.58L223.10-32.58L223.10-32.58Q225.34-33.92 228.77-33.92L228.77-33.92L228.77-33.92Q232.19-33.92 233.82-31.58L233.82-31.58L233.82-31.58Q235.46-29.25 235.90-24.96L235.90-24.96L235.90-24.96Q236.42-19.52 236.42-16.26L236.42-16.26L236.42-16.26Q236.42-11.71 235.97-4.99L235.97-4.99L235.97-4.99Q239.17-7.30 241.79-14.85L241.79-14.85L241.79-14.85Q244.42-22.40 244.42-27.78L244.42-27.78L244.42-27.78Q244.42-30.14 244.03-31.55L244.03-31.55L244.03-31.55Q246.14-33.92 249.79-33.92L249.79-33.92L249.79-33.92Q252.03-33.92 253.66-32.70L253.66-32.70L253.66-32.70Q255.30-31.49 255.30-29.22L255.30-29.22L255.30-29.22Q255.30-26.94 254.62-24.51L254.62-24.51L254.62-24.51Q253.95-22.08 252.86-19.58L252.86-19.58L252.86-19.58Q250.75-14.59 247.81-10.69L247.81-10.69ZM259.81-1.92L259.81-1.92L259.81-1.92Q258.30-3.58 257.63-6.21L257.63-6.21L257.63-6.21Q256.96-8.83 256.96-13.12L256.96-13.12L256.96-13.12Q256.96-17.41 258.43-21.31L258.43-21.31L258.43-21.31Q259.90-25.22 262.59-28.03L262.59-28.03L262.59-28.03Q268.10-33.92 277.18-33.92L277.18-33.92L277.18-33.92Q280.45-33.92 282.82-32.83L282.82-32.83L293.76-33.92L289.02-8.96L289.02-8.96Q288.83-8.19 288.83-6.78L288.83-6.78L288.83-6.78Q288.83-5.38 289.70-4.48L289.70-4.48L289.70-4.48Q290.56-3.58 291.84-3.46L291.84-3.46L291.84-3.46Q291.20-1.28 288.86 0L288.86 0L288.86 0Q286.53 1.28 283.90 1.28L283.90 1.28L283.90 1.28Q281.28 1.28 279.52 0.29L279.52 0.29L279.52 0.29Q277.76-0.70 277.25-2.37L277.25-2.37L277.25-2.37Q276.22-0.77 274.05 0.26L274.05 0.26L274.05 0.26Q271.87 1.28 268.96 1.28L268.96 1.28L268.96 1.28Q266.05 1.28 263.68 0.51L263.68 0.51L263.68 0.51Q261.31-0.26 259.81-1.92ZM273.31-27.90L273.31-27.90L273.31-27.90Q272.58-26.75 271.94-24.80L271.94-24.80L271.94-24.80Q271.30-22.85 270.24-17.63L270.24-17.63L270.24-17.63Q269.18-12.42 269.18-8.70L269.18-8.70L269.18-8.70Q269.18-4.99 269.76-3.90L269.76-3.90L269.76-3.90Q270.34-2.82 271.36-2.82L271.36-2.82L271.36-2.82Q273.41-2.82 274.91-4.77L274.91-4.77L274.91-4.77Q276.42-6.72 276.99-10.18L276.99-10.18L280.38-28.93L280.38-28.93Q279.04-30.08 277.47-30.08L277.47-30.08L277.47-30.08Q275.90-30.08 274.98-29.57L274.98-29.57L274.98-29.57Q274.05-29.06 273.31-27.90ZM317.25-17.98L317.25-17.98L317.25-17.98Q319.55-22.08 319.55-26.24L319.55-26.24L319.55-26.24Q319.55-28.99 317.57-28.99L317.57-28.99L317.57-28.99Q316.03-28.99 314.43-26.37L314.43-26.37L314.43-26.37Q312.77-23.74 312.26-20.35L312.26-20.35L308.93 0L295.68 1.28L302.21-32.64L312.77-33.92L311.62-27.46L311.62-27.46Q314.75-33.92 321.79-33.92L321.79-33.92L321.79-33.92Q325.50-33.92 327.52-32L327.52-32L327.52-32Q329.54-30.08 329.54-26.14L329.54-26.14L329.54-26.14Q329.54-22.21 326.94-19.71L326.94-19.71L326.94-19.71Q324.35-17.22 319.94-17.22L319.94-17.22L319.94-17.22Q318.02-17.22 317.25-17.98ZM376.64 1.28L376.64 1.28L376.64 1.28Q368.90 1.28 368.90-4.74L368.90-4.74L368.90-4.74Q368.90-7.36 370.02-12.45L370.02-12.45L370.02-12.45Q371.14-17.54 371.52-19.58L371.52-19.58L371.52-19.58Q372.42-24.26 372.42-25.73L372.42-25.73L372.42-25.73Q372.42-28.99 369.98-28.99L369.98-28.99L369.98-28.99Q368.38-28.99 366.85-26.78L366.85-26.78L366.85-26.78Q365.31-24.58 364.61-20.16L364.61-20.16L360.64 0L348.16 1.28L351.62-16.13L351.62-16.13Q352.19-19.01 352.70-22.27L352.70-22.27L352.70-22.27Q353.22-25.54 353.22-26.05L353.22-26.05L353.22-26.05Q353.22-28.99 351.04-28.99L351.04-28.99L351.04-28.99Q349.57-28.99 347.97-26.82L347.97-26.82L347.97-26.82Q346.37-24.64 345.47-20.16L345.47-20.16L341.57 0L328.96 1.28L335.68-32.64L346.11-33.92L345.02-27.46L345.02-27.46Q346.69-30.91 349.76-32.42L349.76-32.42L349.76-32.42Q352.83-33.92 357.63-33.92L357.63-33.92L357.63-33.92Q360.38-33.92 362.18-32.58L362.18-32.58L362.18-32.58Q363.97-31.23 364.54-29.06L364.54-29.06L364.54-29.06Q365.63-31.30 368.42-32.61L368.42-32.61L368.42-32.61Q371.20-33.92 374.62-33.92L374.62-33.92L374.62-33.92Q378.05-33.92 379.74-33.18L379.74-33.18L379.74-33.18Q381.44-32.45 382.46-31.23L382.46-31.23L382.46-31.23Q384.19-28.99 384.19-24.90L384.19-24.90L384.19-24.90Q384.19-20.86 382.46-12.48L382.46-12.48L382.46-12.48Q381.57-8.38 381.57-6.88L381.57-6.88L381.57-6.88Q381.57-5.38 382.43-4.48L382.43-4.48L382.43-4.48Q383.30-3.58 384.58-3.46L384.58-3.46L384.58-3.46Q383.94-1.28 381.73 0L381.73 0L381.73 0Q379.52 1.28 376.64 1.28Z" fill="url(#editing-sticker-gradient)" stroke="#010101" stroke-width="2.5"></path></g></g><style>text {
  font-size: 64px;
  font-family: Arial Black;
  dominant-baseline: central;
  text-anchor: middle;
}</style></svg>