<svg width="372.877490234375px" 
      height="121.383740234375px" 
      xmlns="http://www.w3.org/2000/svg" 
      viewBox="63.561254882812506 14.308129882812501 372.877490234375 121.383740234375" 
      style="background-color: rgba(0, 0, 0, 0);" 
      preserveAspectRatio="xMidYMid">
      <defs>
        <linearGradient 
          id="editing-outline-gradient" 
          x1="-0.41354545764260087" 
          x2="1.4135454576426008" 
          y1="0.09326335692419985" 
          y2="0.9067366430758002">
          <stop offset="0" stop-color="#ee4208"></stop>
          <stop offset="1" stop-color="#4139ff"></stop>
        </linearGradient>
        <filter 
          id="editing-outline" 
          x="-100%" y="-100%" width="300%" height="300%">
          <feMorphology in="SourceGraphic" operator="dilate" radius="1" result="outline"></feMorphology>
          <feComposite operator="out" in="outline" in2="SourceAlpha"></feComposite>
        </filter>
      </defs>
      <g filter="url(#editing-outline)">
        <g transform="translate(120.34000062942505, 99.0078125)">
          <path d="M3.87-1.92L3.87-1.92L3.87-1.92Q2.37-3.58 1.70-6.21L1.70-6.21L1.70-6.21Q1.02-8.83 
                  1.02-13.12L1.02-13.12L1.02-13.12Q1.02-17.41 2.50-21.31L2.50-21.31L2.50-21.31Q3.97-25.22 
                  6.66-28.03L6.66-28.03L6.66-28.03Q12.16-33.92 21.25-33.92L21.25-33.92L21.25-33.92Q24.51-33.92 
                  26.88-32.83L26.88-32.83L37.82-33.92L33.09-8.96L33.09-8.96Q32.90-8.19 32.90-6.78L32.90-6.78L32.90-6.78Q32.90-5.38 
                  33.76-4.48L33.76-4.48L33.76-4.48Q34.62-3.58 35.90-3.46L35.90-3.46L35.90-3.46Q35.26-1.28 32.93 0L32.93 0L32.93 
                  0Q30.59 1.28 27.97 1.28L27.97 1.28L27.97 1.28Q25.34 1.28 23.58 0.29L23.58 0.29L23.58
                  0.29Q21.82-0.70 21.31-2.37L21.31-2.37L21.31-2.37Q20.29-0.77 18.11 0.26L18.11 0.26L18.11 
                  0.26Q15.94 1.28 13.02 1.28L13.02 1.28L13.02 1.28Q10.11 1.28 7.74 0.51L7.74 0.51L7.74 
                  0.51Q5.38-0.26 3.87-1.92ZM17.38-27.90L17.38-27.90L17.38-27.90Q16.64-26.75 16-24.80L16-24.80L16-24.80Q15.36-22.85 
                  14.30-17.63L14.30-17.63L14.30-17.63Q13.25-12.42 13.25-8.70L13.25-8.70L13.25-8.70Q13.25-4.99 
                  13.82-3.90L13.82-3.90L13.82-3.90Q14.40-2.82 15.42-2.82L15.42-2.82L15.42-2.82Q17.47-2.82 
                  18.98-4.77L18.98-4.77L18.98-4.77Q20.48-6.72 21.06-10.18L21.06-10.18L24.45-28.93L24.45-28.93Q23.10-30.08 
                  21.54-30.08L21.54-30.08L21.54-30.08Q19.97-30.08 19.04-29.57L19.04-29.57L19.04-29.57Q18.11-29.06 
                  17.38-27.90ZM42.30-6.40L42.30-6.40L42.30-6.40Q42.30-8.13 
                  43.20-12.48L43.20-12.48L46.59-29.76L42.82-29.76L43.07-31.68L43.07-31.68Q50.75-33.98 
                  58.18-39.62L58.18-39.62L61.25-39.62L59.71-32.64L64.70-32.64L64.13-29.76L59.20-29.76L55.94-12.48L55.94-12.48Q55.10-8.51 
                  55.10-7.17L55.10-7.17L55.10-7.17Q55.10-4.10 57.79-3.46L57.79-3.46L57.79-3.46Q57.15-1.28 54.85 0L54.85 0L54.85 0Q52.54 
                  1.28 49.28 1.28L49.28 1.28L49.28 1.28Q46.02 1.28 44.16-0.77 L44.16-0.77L44.16-0.77Q42.30-2.82
                  42.30-6.40ZM84.42-17.98L84.42-17.98L84.42-17.98Q86.72-22.08 86.72-26.24L86.72-26.24L86.72-26.24Q86.72-28.99 
                  84.74-28.99L84.74-28.99L84.74-28.99Q83.20-28.99 81.60-26.37L81.60-26.37L81.60-26.37Q79.94-23.74 
                  79.42-20.35L79.42-20.35L76.10 0L62.85 1.28L69.38-32.64L79.94-33.92L78.78-27.46L78.78-27.46Q81.92-33.92
                  88.96-33.92L88.96-33.92L88.96-33.92Q92.67-33.92 94.69-32L94.69-32L94.69-32Q96.70-30.08 
                  96.70-26.14L96.70-26.14L96.70-26.14Q96.70-22.21 94.11-19.71L94.11-19.71L94.11-19.71Q91.52-17.22 
                  87.10-17.22L87.10-17.22L87.10-17.22Q85.18-17.22 84.42-17.98ZM98.75-6.40L98.75-6.40L98.75-6.40Q98.75-8.13 
                  99.65-12.48L99.65-12.48L103.04-29.76L99.26-29.76L99.52-31.68L99.52-31.68Q107.20-33.98 
                  114.62-39.62L114.62-39.62L117.70-39.62L116.16-32.64L121.15-32.64L120.58-29.76L115.65-29.76L112.38-12.48L112.38-12.48Q111.55-8.51
                  111.55-7.17L111.55-7.17L111.55-7.17Q111.55-4.10 114.24-3.46L114.24-3.46L114.24-3.46Q113.60-1.28 111.30 0L111.30
                  0L111.30 0Q108.99 1.28 105.73 1.28L105.73 1.28L105.73 1.28Q102.46 1.28 100.61-0.77L100.61-0.77L100.61-0.77Q98.75-2.82 
                  98.75-6.40ZM136.19-3.52L136.19-3.52L136.19-3.52Q134.21 1.28 127.87 1.28L127.87 1.28L127.87 1.28Q124.61 1.28 
                  122.56-0.96L122.56-0.96L122.56-0.96Q120.83-2.94 120.83-4.93L120.83-4.93L120.83-4.93Q120.83-10.11 
                  123.20-20.22L123.20-20.22L125.57-32.64L138.56-33.92L134.66-13.70L134.66-13.70Q133.57-8.96 133.57-7.30L133.57-7.30L133.57-7.30Q133.57-3.65 
                  136.19-3.52ZM126.72-41.54L126.72-41.54L126.72-41.54Q126.72-44.03 128.80-45.38L128.80-45.38L128.80-45.38Q130.88-46.72 133.89-46.72L133.89-46.72L133.89-46.72Q136.90-46.72 
                  138.72-45.38L138.72-45.38L138.72-45.38Q140.54-44.03 140.54-41.54L140.54-41.54L140.54-41.54Q140.54-39.04 138.53-37.76L138.53-37.76L138.53-37.76Q136.51-36.48 133.50-36.48L133.50-36.48L133.50-36.48Q130.50-36.48
                  128.61-37.76L128.61-37.76L128.61-37.76Q126.72-39.04 126.72-41.54ZM173.06-26.62L173.06-26.62L173.06-26.62Q173.06-23.94 170.82-22.27L170.82-22.27L170.82-22.27Q168.58-20.61 164.93-20.61L164.93-20.61L164.93-20.61Q163.39-20.61 162.50-21.06L162.50-21.06L162.50-21.06Q163.20-22.72
                  163.42-24.80L163.42-24.80L163.42-24.80Q163.65-26.88 163.65-27.46L163.65-27.46L163.65-27.46Q163.65-30.14 161.79-30.14L161.79-30.14L161.79-30.14Q160.51-30.14 159.07-28.54L159.07-28.54L159.07-28.54Q157.63-26.94 156.42-24.45L156.42-24.45L156.42-24.45Q153.73-18.69 153.73-12.86L153.73-12.86L153.73-12.86Q153.73-9.66 154.94-8.22L154.94-8.22L154.94-8.22Q156.16-6.78 158.85-6.78L158.85-6.78L158.85-6.78Q162.56-6.78 165.50-9.86L165.50-9.86L165.50-9.86Q166.34-10.82 166.78-11.90L166.78-11.90L166.78-11.90Q169.22-10.62 169.22-7.10L169.22-7.10L169.22-7.10Q169.22-3.52 165.25-1.15L165.25-1.15L165.25-1.15Q161.15 1.28 154.62 1.28L154.62 1.28L154.62 1.28Q141.63 1.28 141.63-12.48L141.63-12.48L141.63-12.48Q141.63-22.53 147.33-28.29L147.33-28.29L147.33-28.29Q152.83-33.92 162.94-33.92L162.94-33.92L162.94-33.92Q173.06-33.92 173.06-26.62ZM190.08-3.52L190.08-3.52L190.08-3.52Q188.10 1.28 181.76 1.28L181.76 1.28L181.76 1.28Q178.56 1.28 176.51-0.96L176.51-0.96L176.51-0.96Q174.85-2.82 174.85-4.93L174.85-4.93L174.85-4.93Q174.85-9.73 177.09-20.22L177.09-20.22L181.76-44.80L194.75-46.08L188.54-13.70L188.54-13.70Q187.46-8.96 187.46-7.30L187.46-7.30L187.46-7.30Q187.46-3.65 190.08-3.52ZM221.44-10.82L221.44-10.82L221.44-10.82Q223.04-9.73 223.04-7.33L223.04-7.33L223.04-7.33Q223.04-4.93 221.82-3.39L221.82-3.39L221.82-3.39Q220.61-1.86 218.62-0.83L218.62-0.83L218.62-0.83Q214.53 1.28 210.11 1.28L210.11 1.28L210.11 1.28Q205.70 1.28 203.10 0.32L203.10 0.32L203.10 0.32Q200.51-0.64 198.78-2.43L198.78-2.43L198.78-2.43Q195.39-5.82 195.39-12.03L195.39-12.03L195.39-12.03Q195.39-21.70 200.64-27.58L200.64-27.58L200.64-27.58Q206.27-33.92 216.06-33.92L216.06-33.92L216.06-33.92Q222.14-33.92 225.15-31.36L225.15-31.36L225.15-31.36Q227.39-29.44 227.39-26.30L227.39-26.30L227.39-26.30Q227.39-15.04 207.94-15.04L207.94-15.04L207.94-15.04Q207.68-13.38 207.68-11.97L207.68-11.97L207.68-11.97Q207.68-9.02 208.99-7.90L208.99-7.90L208.99-7.90Q210.30-6.78 212.74-6.78L212.74-6.78L212.74-6.78Q215.17-6.78 217.76-7.90L217.76-7.90L217.76-7.90Q220.35-9.02 221.44-10.82ZM208.38-17.79L208.38-17.79L208.38-17.79Q212.93-17.79 215.55-20.61L215.55-20.61L215.55-20.61Q218.18-23.30 218.18-27.58L218.18-27.58L218.18-27.58Q218.18-29.06 217.63-29.86L217.63-29.86L217.63-29.86Q217.09-30.66 216.00-30.66L216.00-30.66L216.00-30.66Q214.91-30.66 213.98-30.24L213.98-30.24L213.98-30.24Q213.06-29.82 212.10-28.42L212.10-28.42L212.10-28.42Q209.73-25.22 208.38-17.79ZM248.70-22.46L248.70-22.46L248.70-22.46Q249.60-24.83 249.60-26.88L249.60-26.88L249.60-26.88Q249.60-30.66 246.53-30.66L246.53-30.66L246.53-30.66Q244.93-30.66 243.62-29.22L243.62-29.22L243.62-29.22Q242.30-27.78 242.30-25.98L242.30-25.98L242.30-25.98Q242.30-24.70 243.33-23.68L243.33-23.68L243.33-23.68Q244.80-22.27 248.58-19.97L248.58-19.97L248.58-19.97Q252.35-17.66 253.79-15.78L253.79-15.78L253.79-15.78Q255.23-13.89 255.23-11.30L255.23-11.30L255.23-11.30Q255.23-8.70 253.98-6.34L253.98-6.34L253.98-6.34Q252.74-3.97 250.50-2.30L250.50-2.30L250.50-2.30Q245.70 1.28 238.02 1.28L238.02 1.28L238.02 1.28Q233.86 1.28 230.66-0.90L230.66-0.90L230.66-0.90Q227.46-3.01 227.46-5.50L227.46-5.50L227.46-5.50Q227.46-8 229.28-9.47L229.28-9.47L229.28-9.47Q231.10-10.94 233.79-10.94L233.79-10.94L233.79-10.94Q236.48-10.94 238.14-9.92L238.14-9.92L238.14-9.92Q237.31-7.81 237.31-6.40L237.31-6.40L237.31-6.40Q237.31-2.18 240.90-2.18L240.90-2.18L240.90-2.18Q242.43-2.18 243.46-3.14L243.46-3.14L243.46-3.14Q244.48-4.10 244.48-5.76L244.48-5.76L244.48-5.76Q244.48-9.02 238.98-12.48L238.98-12.48L238.98-12.48Q234.50-15.42 233.47-16.58L233.47-16.58L233.47-16.58Q231.74-18.62 231.74-21.18L231.74-21.18L231.74-21.18Q231.74-23.74 232.96-26.18L232.96-26.18L232.96-26.18Q234.18-28.61 236.42-30.34L236.42-30.34L236.42-30.34Q241.09-33.92 249.22-33.92L249.22-33.92L249.22-33.92Q253.38-33.92 255.84-32.26L255.84-32.26L255.84-32.26Q258.30-30.59 258.30-27.78L258.30-27.78L258.30-27.78Q258.30-24.96 256.61-23.36L256.61-23.36L256.61-23.36Q254.91-21.76 251.84-21.76L251.84-21.76L251.84-21.76Q249.73-21.76 248.70-22.46Z" 
                                          
                  fill="url(#editing-outline-gradient)">
          </path>
        </g>
      </g>
      <style>
          text {
              font-size: 64px;
              font-family: Arial Black;
              dominant-baseline: central;
              text-anchor: middle;
              <!-- background-color: #770079 -->
          }
      </style>
</svg>